<?xml version="1.0" standalone="no"?>
<!DOCTYPE svg PUBLIC "-//W3C//DTD SVG 20010904//EN"
 "http://www.w3.org/TR/2001/REC-SVG-20010904/DTD/svg10.dtd">
<svg version="1.0" xmlns="http://www.w3.org/2000/svg"
 width="1218.000000pt" height="1218.000000pt" viewBox="0 0 1218.000000 1218.000000"
 preserveAspectRatio="xMidYMid meet">
<metadata>
Created by potrace 1.14, written by Peter Selinger 2001-2017
</metadata>
<g transform="translate(0.000000,1218.000000) scale(0.100000,-0.100000)"
fill="#000000" stroke="none">
<path d="M3960 12162 c-31 -25 -28 -57 10 -122 37 -62 90 -153 128 -220 41
-73 248 -432 271 -470 11 -19 24 -42 28 -50 4 -8 28 -52 55 -97 26 -45 48 -84
48 -87 0 -3 -33 -22 -72 -44 -195 -104 -341 -198 -493 -316 -402 -313 -735
-735 -914 -1156 -13 -30 -31 -73 -41 -95 -32 -73 -98 -289 -124 -405 -41 -188
-54 -279 -62 -467 l-7 -133 3275 0 3274 0 -3 88 c-3 82 -19 265 -27 308 -2 10
-7 39 -11 64 -6 37 -23 114 -60 273 -35 152 -174 474 -286 666 -277 474 -759
924 -1259 1176 l-71 36 29 52 c16 29 43 76 61 105 17 29 31 55 31 57 0 2 28
50 62 107 33 56 71 121 83 143 12 22 83 147 159 278 76 131 139 246 141 255 5
33 -13 60 -46 67 -25 6 -36 3 -54 -16 -19 -20 -181 -291 -234 -394 -9 -16 -18
-32 -21 -35 -3 -3 -53 -88 -112 -190 -58 -102 -115 -201 -126 -220 -12 -19
-35 -61 -53 -92 -32 -58 -44 -66 -77 -49 -157 83 -580 205 -852 246 -302 46
-660 53 -955 20 -189 -22 -442 -74 -630 -131 -121 -37 -318 -109 -372 -138
l-29 -15 -51 87 c-28 48 -120 206 -203 352 -84 146 -161 277 -171 292 -11 15
-19 29 -19 32 0 12 -134 232 -148 244 -22 17 -46 15 -72 -6z m675 -1996 c138
-64 212 -230 165 -374 -35 -107 -141 -195 -251 -208 -30 -3 -56 -7 -59 -7 -21
-3 -99 19 -135 39 -100 57 -159 156 -158 270 1 228 232 375 438 280z m3125 -9
c228 -114 223 -434 -10 -550 -37 -18 -61 -22 -135 -22 -80 1 -96 4 -143 30
-248 136 -204 498 70 569 76 20 142 11 218 -27z"/>
<path d="M1708 8225 c-1 -2 -32 -4 -68 -6 -104 -4 -281 -63 -336 -113 -7 -6
-37 -31 -67 -56 -126 -105 -227 -288 -256 -466 -13 -77 -14 -3125 -2 -3212 45
-304 254 -555 528 -630 96 -27 239 -27 335 -1 245 68 431 263 510 535 l23 79
0 1590 c0 875 -3 1613 -7 1640 -21 157 -119 344 -237 453 -92 86 -244 161
-357 177 -22 3 -44 8 -51 10 -6 2 -13 2 -15 0z"/>
<path d="M10438 8226 c-1 -2 -30 -6 -63 -9 -221 -21 -436 -179 -549 -404 -14
-28 -38 -91 -53 -140 l-27 -88 -2 -1585 c-2 -1486 -1 -1590 16 -1670 36 -173
97 -287 221 -411 135 -135 280 -197 462 -197 142 -1 239 28 357 103 190 121
311 319 347 565 3 19 5 733 5 1585 1 1135 -2 1565 -11 1605 -6 30 -13 64 -15
75 -2 11 -12 43 -21 70 -91 265 -331 468 -580 491 -33 3 -65 7 -72 9 -6 2 -13
2 -15 1z"/>
<path d="M2761 5627 c0 -1729 3 -2509 10 -2547 34 -175 195 -369 379 -458 l75
-37 424 -2 c232 -1 426 -5 429 -8 4 -4 7 -408 8 -898 1 -491 4 -908 8 -927 48
-245 187 -450 375 -555 101 -57 178 -77 301 -79 63 0 129 2 145 6 83 20 105
27 164 56 138 69 253 185 325 331 48 96 64 150 84 281 4 25 7 438 7 918 l0
872 35 1 c45 0 1036 0 1072 0 l26 -1 0 -878 c0 -482 3 -897 7 -922 12 -84 14
-95 40 -169 53 -158 153 -293 283 -383 105 -73 246 -117 370 -118 69 0 210 26
230 42 6 6 12 8 12 4 0 -9 77 31 140 74 55 38 148 130 187 185 64 92 119 239
138 366 4 24 7 438 7 921 l0 878 22 0 c11 1 203 2 426 3 404 2 405 2 460 26
174 77 336 256 391 433 18 58 19 145 19 2569 l0 2509 -3299 0 -3299 0 -1
-2493z"/>
</g>
</svg>
